<svg height="512" viewBox="0 0 64 64" width="512" xmlns="http://www.w3.org/2000/svg"><g id="Icons"><g><g><path d="m60 6c0-1.105-.895-2-2-2h-16c-1.105 0-2 .895-2 2v5.562c.843.763 1.482 1.749 1.787 2.879 1.307.659 2.213 1.998 2.213 3.559v2h14c1.105 0 2-.895 2-2z" fill="#3cc8b4"/></g><g><path d="m54 11h-3v-3h-2v3h-3v2h3v3h2v-3h3z" fill="#f0f0f0"/></g><g><path d="m49.404 47.027-13.404-5.027h-8l-13.404 5.027c-1.562.585-2.596 2.078-2.596 3.745v9.228h40v-9.228c0-1.667-1.034-3.16-2.596-3.745z" fill="#f0f0f0"/></g><g><path d="m18.596 47.027 13.404-5.027h-4l-13.404 5.027c-1.562.585-2.596 2.078-2.596 3.745v9.228h4v-9.228c0-1.667 1.034-3.16 2.596-3.745z" fill="#d2d2d2"/></g><g><path d="m36 42v-6h-8v6l4 4z" fill="#d2aa82"/></g><g><path d="m42 24h-2v-4.187c0-2.234-1.829-4.034-4.062-4l-8 .125c-2.185.034-3.938 1.815-3.938 4v4.062h-2c-1.105 0-2 .895-2 2v.764c0 .758.428 1.45 1.106 1.789l2.894 1.447v2.343c0 1.061.421 2.078 1.172 2.828l1.657 1.657c.75.75 1.768 1.172 2.828 1.172h4.686c1.061 0 2.078-.421 2.828-1.172l1.657-1.657c.75-.75 1.172-1.768 1.172-2.828v-2.343l2.894-1.447c.678-.339 1.106-1.031 1.106-1.789v-.764c0-1.105-.895-2-2-2z" fill="#f0c8a0"/></g><g><path d="m30 26.5h-4c-.276 0-.5-.224-.5-.5s.224-.5.5-.5h4c.276 0 .5.224.5.5s-.224.5-.5.5z" fill="#be7800"/></g><g><path d="m32 33.671c-.641 0-1.28-.244-1.768-.731l-.586-.586c-.195-.195-.195-.512 0-.707s.512-.195.707 0l.586.586c.584.584 1.537.584 2.121 0l.586-.586c.195-.195.512-.195.707 0s.195.512 0 .707l-.586.586c-.487.487-1.126.731-1.767.731z" fill="#be7800"/></g><g><circle cx="29" cy="27" fill="#be7800" r="1"/></g><g><path d="m38 26.5h-4c-.276 0-.5-.224-.5-.5s.224-.5.5-.5h4c.276 0 .5.224.5.5s-.224.5-.5.5z" fill="#be7800"/></g><g><circle cx="35" cy="27" fill="#be7800" r="1"/></g><g><path d="m42 26c-2.209 0-4-1.791-4-4v-6h2c1.105 0 2 .895 2 2z" fill="#dc9600"/></g><g><path d="m41.787 14.441c.074.037.142.084.213.126v-8.567c0-1.105.895-2 2-2h-2c-1.105 0-2 .895-2 2v5.562c.843.763 1.482 1.749 1.787 2.879z" fill="#1eaa96"/></g><g><path d="m22 22v-2c0-4.418 3.582-8 8-8h6c2.209 0 4 1.791 4 4 0 1.259-.593 2.445-1.6 3.2l-3.2 2.4c-2.077 1.558-4.604 2.4-7.2 2.4h-4c-1.105 0-2-.895-2-2z" fill="#fab400"/></g><g><path d="m28 42v18h8v-18l-4 4z" fill="#64c8f0"/></g><g><path d="m34 48-2-2-2 2 1.6 1.6-1.6 10.4h4l-1.6-10.4z" fill="#505050"/></g><g><path d="m42.5 52h-1v-6c0-3.032-2.468-5.5-5.5-5.5v-1c3.584 0 6.5 2.916 6.5 6.5z" fill="#505050"/></g><g><path d="m22.5 50h-1v-4c0-3.584 2.916-6.5 6.5-6.5v1c-3.032 0-5.5 2.468-5.5 5.5z" fill="#505050"/></g><g><path d="m42 54c-1.105 0-2-.895-2-2 0-1.105.895-2 2-2 1.105 0 2 .895 2 2 0 1.105-.895 2-2 2z" fill="#3cc8b4"/></g><g><path d="m24.5 56h-1v-4c0-.827-.673-1.5-1.5-1.5s-1.5.673-1.5 1.5v4h-1v-4c0-1.379 1.121-2.5 2.5-2.5s2.5 1.121 2.5 2.5z" fill="#3cc8b4"/></g><g><path d="m5 8h14c.552 0 1 .448 1 1v13l-2.9-3.625c-.19-.237-.477-.375-.781-.375h-11.319c-.552 0-1-.448-1-1v-8c0-.552.448-1 1-1z" fill="#64c8f0"/></g><g><path d="m6 17v-8c0-.552.448-1 1-1h-2c-.552 0-1 .448-1 1v8c0 .552.448 1 1 1h2c-.552 0-1-.448-1-1z" fill="#46aad2"/></g><g><path d="m8 14c-.552 0-1-.448-1-1 0-.552.448-1 1-1 .552 0 1 .448 1 1 0 .552-.448 1-1 1z" fill="#f0f0f0"/></g><g><path d="m12 14c-.552 0-1-.448-1-1 0-.552.448-1 1-1 .552 0 1 .448 1 1 0 .552-.448 1-1 1z" fill="#f0f0f0"/></g><g><path d="m16 14c-.552 0-1-.448-1-1 0-.552.448-1 1-1 .552 0 1 .448 1 1 0 .552-.448 1-1 1z" fill="#f0f0f0"/></g></g></g></svg>