<svg id="Capa_1" enable-background="new 0 0 512 512" height="512" viewBox="0 0 512 512" width="512" xmlns="http://www.w3.org/2000/svg" xmlns:xlink="http://www.w3.org/1999/xlink"><linearGradient id="SVGID_1_" gradientUnits="userSpaceOnUse" x1="229.197" x2="290.466" y1="338.333" y2="232.212"><stop offset="0" stop-color="#7662bd"/><stop offset="1" stop-color="#c5baeb"/></linearGradient><linearGradient id="SVGID_2_" gradientUnits="userSpaceOnUse" x1="327.928" x2="327.928" y1="339.076" y2="4.758"><stop offset="0" stop-color="#c5baeb"/><stop offset="1" stop-color="#dfdaef"/></linearGradient><linearGradient id="lg1"><stop offset="0" stop-color="#c5baeb"/><stop offset=".5645" stop-color="#dfdaef"/><stop offset="1" stop-color="#c5baeb"/></linearGradient><linearGradient id="SVGID_3_" gradientUnits="userSpaceOnUse" x1="459.617" x2="437.488" xlink:href="#lg1" y1="134.004" y2="172.333"/><linearGradient id="SVGID_4_" gradientUnits="userSpaceOnUse" x1="114.554" x2="136.683" xlink:href="#lg1" y1="279.072" y2="317.401"/><linearGradient id="SVGID_5_" gradientUnits="userSpaceOnUse" x1="459.617" x2="437.488" xlink:href="#lg1" y1="211.325" y2="249.654"/><linearGradient id="SVGID_6_" gradientUnits="userSpaceOnUse" x1="459.617" x2="437.488" xlink:href="#lg1" y1="289.127" y2="327.456"/><linearGradient id="SVGID_7_" gradientUnits="userSpaceOnUse" x1="125.697" x2="86.232" y1="300.865" y2="369.22"><stop offset="0" stop-color="#ab2c37"/><stop offset="1" stop-color="#ff4757"/></linearGradient><linearGradient id="SVGID_8_" gradientUnits="userSpaceOnUse" x1="114.554" x2="136.684" xlink:href="#lg1" y1="363.67" y2="401.999"/><linearGradient id="SVGID_9_" gradientUnits="userSpaceOnUse" x1="113.662" x2="55.127" y1="386.905" y2="488.29"><stop offset="0" stop-color="#0197f8"/><stop offset="1" stop-color="#79d3fe"/></linearGradient><g><path d="m472.923 65.656.004-.008-100.828-64.507c-2.877-1.484-6.454-1.632-9.657.218l-264.932 153.485c-12.025 6.943-19.432 19.773-19.432 33.657v245.316c0 4.076 2.323 7.333 5.494 8.965l98.248 62.893.003-.005c3.067 2.537 7.563 3.265 11.495.995l264.931-153.485c12.025-6.942 19.432-19.772 19.432-33.657v-245.316c0-3.753-1.971-6.814-4.758-8.551z" fill="url(#SVGID_1_)"/><path d="m197.608 218.949 264.931-153.484c6.73-3.886 15.142.971 15.142 8.742v245.316c0 13.885-7.407 26.715-19.432 33.657l-264.931 153.485c-6.73 3.885-15.142-.971-15.142-8.742v-245.317c-.001-13.884 7.407-26.714 19.432-33.657z" fill="url(#SVGID_2_)"/><path d="m398.506 361.45-178.647 102.303c-8.665 5.003-19.497-1.251-19.497-11.257v-192.511c0-8.637 4.608-16.618 12.088-20.937l178.647-102.303c8.665-5.003 19.497 1.251 19.497 11.257v192.512c0 8.636-4.608 16.617-12.088 20.936z" fill="#43386b"/><g><path d="m469.259 135.945.003-.006-19.653-11.342-.002.004c-2.788-1.687-6.454-1.575-10.473.745-8.722 5.036-15.794 18.546-15.794 30.177 0 6.675 2.332 11.274 5.966 13.034l-.002.005 19.397 11.211.009-.018c2.781 1.654 6.418 1.546 10.411-.759 8.723-5.036 15.794-18.547 15.794-30.177.001-6.484-2.2-11.007-5.656-12.874z" fill="url(#SVGID_3_)"/><path d="m443.328 167.056c0 11.63 7.071 16.976 15.794 11.94s15.794-18.547 15.794-30.177-7.071-16.976-15.794-11.94-15.794 18.546-15.794 30.177z" fill="#e9e5f6"/></g><g><path d="m145.62 303.6c0-11.63-7.071-25.141-15.794-30.177-4.019-2.32-7.685-2.432-10.472-.745l-.002-.004-19.653 11.342 20.56 43.834 19.397-11.211-.002-.005c3.633-1.76 5.966-6.359 5.966-13.034z" fill="url(#SVGID_4_)"/><ellipse cx="109.838" cy="306.014" fill="#e9e5f6" rx="13.717" ry="24.246" transform="matrix(.92 -.392 .392 .92 -111.049 67.44)"/></g><g><path d="m469.259 213.266.003-.006-19.653-11.342-.002.005c-2.788-1.687-6.454-1.575-10.473.745-8.722 5.036-15.794 18.546-15.794 30.177 0 6.675 2.332 11.274 5.966 13.034l-.002.005 19.397 11.211.009-.018c2.781 1.654 6.418 1.546 10.411-.76 8.723-5.036 15.794-18.546 15.794-30.177.001-6.484-2.2-11.007-5.656-12.874z" fill="url(#SVGID_5_)"/><path d="m443.328 244.377c0 11.63 7.071 16.976 15.794 11.94s15.794-18.547 15.794-30.177-7.071-16.976-15.794-11.94-15.794 18.546-15.794 30.177z" fill="#e9e5f6"/></g><g><path d="m469.259 291.068.003-.006-19.653-11.342-.002.004c-2.788-1.687-6.454-1.575-10.473.745-8.722 5.036-15.794 18.547-15.794 30.177 0 6.675 2.332 11.274 5.966 13.034l-.002.005 19.397 11.211.009-.018c2.781 1.654 6.418 1.546 10.411-.76 8.723-5.036 15.794-18.546 15.794-30.177.001-6.482-2.2-11.005-5.656-12.873z" fill="url(#SVGID_6_)"/><ellipse cx="459.122" cy="313.061" fill="#e9e5f6" rx="24.246" ry="13.717" transform="matrix(.392 -.92 .92 .392 -8.714 612.943)"/></g><g><path d="m44.553 512c-5.653 0-10.234-4.582-10.234-10.234v-88.578c0-46.503 25.018-89.835 65.29-113.086 4.893-2.826 11.154-1.15 13.979 3.746 2.826 4.895 1.149 11.153-3.746 13.979-33.96 19.607-55.056 56.147-55.056 95.361v88.578c0 5.652-4.581 10.234-10.233 10.234z" fill="url(#SVGID_7_)"/></g><g><path d="m145.62 388.198c0-11.63-7.071-25.141-15.794-30.177-4.019-2.32-7.685-2.432-10.472-.745l-.002-.004-19.653 11.342 20.56 43.834 19.397-11.211-.002-.005c3.633-1.76 5.966-6.359 5.966-13.034z" fill="url(#SVGID_8_)"/><ellipse cx="109.838" cy="390.612" fill="#e9e5f6" rx="13.717" ry="24.246" transform="matrix(.92 -.392 .392 .92 -144.173 74.194)"/></g><g><path d="m71.746 496.3c-5.653 0-10.234-4.582-10.234-10.234v-35.614c0-27.102 14.61-52.303 38.128-65.77 4.902-2.808 11.156-1.109 13.966 3.796 2.808 4.905 1.109 11.157-3.796 13.966-17.167 9.83-27.831 28.225-27.831 48.008v35.614c.001 5.652-4.58 10.234-10.233 10.234z" fill="url(#SVGID_9_)"/></g><path d="m410.594 230.607-41.415 24.128-11.757-18.332c-1.512-2.36-4.32-3.556-7.069-3.009-2.752.545-4.888 2.718-5.387 5.477l-9.09 50.231-22.613-73.772c-.939-3.068-3.88-5.062-7.089-4.8-3.197.266-5.778 2.725-6.198 5.906l-14.203 107.509-21.629-53.374c-1.079-2.664-3.667-4.362-6.588-4.255-2.874.112-5.369 2.014-6.238 4.755l-20.081 63.321-30.876 17.645v15.715l39.959-22.836c1.488-.85 2.601-2.228 3.118-3.861l15.167-47.824 24.226 59.782c1.163 2.871 4.121 4.595 7.186 4.205 3.072-.392 5.494-2.804 5.9-5.874l13.483-102.056 21.663 70.674c.922 3.009 3.78 4.998 6.926 4.811 3.142-.186 5.748-2.498 6.309-5.595l11.004-60.803 5.92 9.23c1.974 3.077 6.022 4.05 9.177 2.212l40.194-23.417v-15.793z" fill="#06daae"/><g><path d="m219.116 420.496c-1.887 0-3.722-.979-4.732-2.73-1.507-2.61-.613-5.949 1.998-7.456l40.942-23.638c2.612-1.507 5.95-.613 7.455 1.998 1.507 2.611.613 5.949-1.997 7.456l-40.943 23.638c-.859.496-1.797.732-2.723.732z" fill="#fff"/></g><g><path d="m219.116 444.134c-1.887 0-3.722-.979-4.732-2.73-1.507-2.61-.613-5.948 1.998-7.456l23.641-13.649c2.61-1.506 5.95-.612 7.455 1.998 1.507 2.61.613 5.948-1.997 7.456l-23.641 13.649c-.86.496-1.798.732-2.724.732z" fill="#fff"/></g></g></svg>