<svg id="Capa_1" enable-background="new 0 0 512 512" height="512" viewBox="0 0 512 512" width="512" xmlns="http://www.w3.org/2000/svg"><g><g><path clip-rule="evenodd" d="m57.059 223.958c10.597 10.421 24.717 12.946 41.274-3.64 5.93-20.784 16.703-40.482 32.35-57.303l-7.838-25.188c-.029-.059-22.369.029-22.398 0-22.751 25.041-37.194 54.925-43.388 86.131z" fill="#dddaec" fill-rule="evenodd"/></g><g><path clip-rule="evenodd" d="m106.552 387.06c24.688 24.689 54.748 40.717 86.422 48.144 16.322-8.748 22.339-23.602 2.994-39.807-22.574-6.341-43.857-18.377-61.617-36.137-8.278-8.278-15.323-17.32-21.106-26.89-15.294-11.713-29.796-9.247-40.833 7.222 8.484 17.144 19.873 33.201 34.14 47.468z" fill="#dddaec" fill-rule="evenodd"/></g><g><path clip-rule="evenodd" d="m192.974 435.204v34.024l41.391 11.537 41.332-11.537v-33.994-24.395c0-5.431-1.057-10.656-2.994-15.412-6.135-15.177-21.048-25.951-38.367-25.951-17.29 0-32.203 10.774-38.367 25.921-1.937 4.785-2.994 9.981-2.994 15.441v24.366z" fill="#365e7d" fill-rule="evenodd"/></g><g><path clip-rule="evenodd" d="m275.697 435.234c31.704-7.427 61.793-23.456 86.481-48.173 15.764-15.764 27.976-33.671 36.694-52.812l-23.925-12.476-20.607 12.476c-5.548 8.895-12.212 17.291-19.932 25.011-17.789 17.79-39.101 29.826-61.705 36.167-9.746 10.304-5.988 27.066 2.994 39.807z" fill="#dddaec" fill-rule="evenodd"/></g><g><path clip-rule="evenodd" d="m60.963 66.051 38.426 32.057 23.455-10.216 4.257-23.015-38.426-32.086-21.518 11.243z" fill="#f9f7f8" fill-rule="evenodd"/></g><g><path clip-rule="evenodd" d="m192.974 469.228h-145.955c-4.345 0-7.926 3.581-7.926 7.926v26.92c0 4.345 3.581 7.926 7.926 7.926h374.633c4.345 0 7.926-3.581 7.926-7.926v-26.92c0-4.345-3.581-7.926-7.926-7.926h-145.955z" fill="#22a6fe" fill-rule="evenodd"/></g><g><path clip-rule="evenodd" d="m68.713 5.842-37.868 45.384c-5.754 6.899-4.814 17.232 2.055 22.956 6.898 5.754 17.232 4.814 22.985-2.055l5.078-6.077 27.711-33.26 5.078-6.077c5.754-6.869 4.814-17.203-2.055-22.956-3.052-2.524-6.75-3.757-10.42-3.757h-.029c-4.668 0-9.306 1.996-12.535 5.842z" fill="#22a6fe" fill-rule="evenodd"/></g><g><path clip-rule="evenodd" d="m284.651 199.915-23.426 5.49-.675 23.397 20.842 17.379c7.955 6.634 19.169 4.932 26.479-2.378 7.309-7.31 5.548-19.874-2.378-26.479z" fill="#365e7d" fill-rule="evenodd"/></g><g><path clip-rule="evenodd" d="m234.512 237.99c5.959 4.961 14.912 4.169 19.874-1.791l6.165-7.398 24.101-28.886 6.165-7.398c4.961-5.93 4.168-14.884-1.791-19.845l-16.028-13.386-38.632 15.03-15.852 50.316z" fill="#f9f7f8" fill-rule="evenodd"/></g><g><path clip-rule="evenodd" d="m130.682 163.015 78.115 65.112c2.202 1.849 5.519 1.556 7.368-.675l2.348-2.818 54.483-65.347 2.348-2.818c1.849-2.231 1.556-5.548-.675-7.368l-21.371-17.819-86.862-72.392c-11.126-9.306-27.858-7.779-37.164 3.376l-2.172 2.613-27.711 33.229-2.202 2.642c-9.247 11.097-7.779 27.742 3.258 37.077 9.6 8.513 20.315 16.909 30.237 25.188z" fill="#22a6fe" fill-rule="evenodd"/></g><g><path clip-rule="evenodd" d="m463.366 289.598h-206.074c-2.877 0-5.255 2.583-5.255 5.724v33.202c0 3.141 2.378 5.724 5.255 5.724h227.797c2.877 0 5.225-2.583 5.225-5.724v-9.423c0-16.234-12.124-29.503-26.948-29.503z" fill="#365e7d" fill-rule="evenodd"/></g><g><path clip-rule="evenodd" d="m490.314 328.524v-9.423c0-4.139-.763-8.073-2.172-11.625-4.168-10.509-13.709-17.878-24.776-17.878h-40.481c14.854 0 26.978 13.269 26.978 29.503v9.423c0 3.141-2.348 5.724-5.255 5.724h40.481c1.116 0 2.172-.411 3.053-1.086 1.321-1.027 2.172-2.73 2.172-4.638z" fill="#2b4d66" fill-rule="evenodd"/></g><g><path clip-rule="evenodd" d="m275.697 410.839c0-5.431-1.057-10.656-2.994-15.412-6.135-15.177-21.048-25.951-38.367-25.951-5.959 0-11.654 1.292-16.791 3.581 9.775 4.374 17.584 12.418 21.606 22.369 1.937 4.756 2.994 9.981 2.994 15.412v24.395 33.994h33.553v-33.994-24.394z" fill="#2b4d66" fill-rule="evenodd"/></g><g><path clip-rule="evenodd" d="m429.578 504.074v-26.92c0-4.345-3.581-7.926-7.926-7.926h-33.553c4.345 0 7.926 3.581 7.926 7.926v26.92c0 4.345-3.581 7.926-7.926 7.926h33.553c4.345 0 7.926-3.581 7.926-7.926z" fill="#0593fc" fill-rule="evenodd"/></g><g><path clip-rule="evenodd" d="m93.753 26.714c5.754-6.869 4.814-17.203-2.055-22.956-3.053-2.525-6.751-3.758-10.421-3.758h-.029c-4.667 0-9.306 1.996-12.535 5.842l-15.265 18.289c3.2-3.816 7.838-5.783 12.505-5.783h.029c3.669 0 7.368 1.233 10.392 3.758 4.286 3.581 6.282 8.924 5.783 14.12-.323 3.112-1.526 6.194-3.669 8.807v-.029l10.186-12.212z" fill="#0593fc" fill-rule="evenodd"/></g><g><path clip-rule="evenodd" d="m253.299 131.281-86.862-72.392c-11.126-9.306-27.858-7.779-37.164 3.376l-2.172 2.613-12.564 15.089c3.112-3.493 6.957-5.989 11.155-7.398 8.425-2.877 18.142-1.438 25.451 4.638l86.862 72.422 19.052 15.852 2.319 1.967c2.202 1.82 2.495 5.137.675 7.339l-2.378 2.848h.029l15.294-18.348 2.348-2.818c1.849-2.231 1.556-5.548-.675-7.368z" fill="#0593fc" fill-rule="evenodd"/></g><g><path clip-rule="evenodd" d="m290.815 192.517c4.961-5.93 4.168-14.884-1.791-19.845l-16.028-13.386-15.294 18.348 16.028 13.386c3.17 2.642 4.873 6.429 5.02 10.275.147 3.376-.91 6.781-3.229 9.57l.029-.029 9.1-10.92z" fill="#dddaec" fill-rule="evenodd"/></g><g><path clip-rule="evenodd" d="m275.551 210.836s0 0-.029.029zm29.942 6.487-20.842-17.408-9.1 10.92-.029.029 20.842 17.379c5.724 4.785 8.249 12.652 6.458 19.404 1.82-1.027 3.523-2.319 5.049-3.846 7.309-7.308 5.548-19.873-2.378-26.478z" fill="#2b4d66" fill-rule="evenodd"/></g><g><path clip-rule="evenodd" d="m127.101 64.877-38.426-32.086-9.1 10.95 38.426 32.056h-.03z" fill="#dddaec" fill-rule="evenodd"/></g><g><path clip-rule="evenodd" d="m39.563 322.594c9.276 9.277 20.813 14.942 32.849 16.997 13.826 2.378 28.328-.029 40.833-7.222 4.55-2.642 8.836-5.901 12.711-9.776 23.866-23.867 23.866-62.558 0-86.395-7.926-7.956-17.496-13.24-27.623-15.882-13.65-3.611-28.299-2.378-41.274 3.64-6.341 2.936-12.271 7.016-17.496 12.242-23.836 23.838-23.836 62.53 0 86.396z" fill="#365e7d" fill-rule="evenodd"/></g><g><path clip-rule="evenodd" d="m65.014 297.143c9.805 9.805 25.686 9.805 35.491 0 9.834-9.805 9.834-25.687 0-35.521-9.805-9.805-25.686-9.805-35.491 0-9.804 9.834-9.804 25.686 0 35.521z" fill="#f9f7f8" fill-rule="evenodd"/></g><g><path clip-rule="evenodd" d="m125.956 322.594c23.866-23.867 23.866-62.558 0-86.395-7.926-7.956-17.496-13.24-27.623-15.882-8.219-2.172-16.821-2.583-25.187-1.262 5.842 1.908 11.419 4.697 16.556 8.396 2.671 1.908 5.225 4.081 7.632 6.458 23.866 23.867 23.866 62.558 0 86.424-3.875 3.875-8.161 7.134-12.711 9.746-6.546 3.787-13.621 6.223-20.872 7.368 2.847.939 5.724 1.644 8.66 2.143 13.826 2.378 28.328-.029 40.833-7.222 4.551-2.64 8.837-5.899 12.712-9.774z" fill="#2b4d66" fill-rule="evenodd"/></g><g><path clip-rule="evenodd" d="m100.505 297.143c9.834-9.805 9.834-25.687 0-35.521-7.574-7.574-18.817-9.306-28.064-5.137 2.495 1.204 4.844 2.818 6.899 4.902 9.834 9.805 9.834 25.687 0 35.492-2.202 2.231-4.726 3.934-7.427 5.167 9.335 4.461 20.871 2.847 28.592-4.903z" fill="#dddaec" fill-rule="evenodd"/></g><g><path d="m234.365 427.108c-1.989 0-3.976-.763-5.487-2.287-3.004-3.03-3.012-7.952.018-10.956 3.031-3.006 7.893-3.013 10.898.018l.058.059c3.004 3.03 2.983 7.922-.047 10.927-1.507 1.493-3.474 2.239-5.44 2.239z"/></g></g></svg>