<svg height="512" viewBox="0 0 512 512" width="512" xmlns="http://www.w3.org/2000/svg"><g id="Flat"><path d="m240 384h-64.00013a127.99987 127.99987 0 0 1 -127.99987-127.99987v-.00026a127.99987 127.99987 0 0 1 127.99987-127.99987h64.00013z" fill="#379ec3"/><path d="m24 288h48v96h-48z" fill="#d3e1e9"/><path d="m256 384h-184v-96h128z" fill="#c4d4e0"/><circle cx="240" cy="256" fill="#8acce7" r="128"/><path d="m240.22363 368h-.22363a112.68753 112.68753 0 0 1 -16.67969-1.24023l2.375-15.82227a96.70861 96.70861 0 0 0 14.30469 1.0625h.22363zm16.69727-1.27637-2.41016-15.81836a95.64658 95.64658 0 0 0 13.9668-3.21582l4.75391 15.27735a111.72519 111.72519 0 0 1 -16.31055 3.75683zm-49.9209-3.68554a111.85181 111.85181 0 0 1 -15.585-6.13379l6.96094-14.40625a95.7626 95.7626 0 0 0 13.34668 5.25293zm81.7959-6.23438-6.9961-14.39062a96.42652 96.42652 0 0 0 12.39356-7.21289l9.05469 13.1914a112.63043 112.63043 0 0 1 -14.45215 8.41211zm-111.86231-8.28711a113.12433 113.12433 0 0 1 -13.06933-10.43945l10.88474-11.72656a97.07284 97.07284 0 0 0 11.21387 8.957zm139.36133-10.58789-10.9082-11.70508a97.23608 97.23608 0 0 0 9.74707-10.53613l12.51758 9.9668a113.45588 113.45588 0 0 1 -11.35645 12.27441zm-163.81152-12.10449a112.82152 112.82152 0 0 1 -9.44141-13.80176l13.8418-8.02539a96.62081 96.62081 0 0 0 8.09766 11.83691zm184.58691-13.99707-13.85742-7.99805a95.84087 95.84087 0 0 0 6.21973-12.9248l14.89843 5.83593a111.96263 111.96263 0 0 1 -7.26074 15.08692zm-201.3125-14.85938a111.33155 111.33155 0 0 1 -4.95019-15.99316l15.59765-3.56445a95.33061 95.33061 0 0 0 4.23731 13.68847zm213.49119-16.24316-15.60547-3.5293a95.96653 95.96653 0 0 0 2.10254-14.18066l15.959 1.1582a112.04411 112.04411 0 0 1 -2.45607 16.55176zm-220.93552-16.29785c-.209-2.793-.31446-5.62891-.31348-8.42969 0-2.75488.10254-5.54492.30469-8.29l15.957 1.17578c-.1738 2.35543-.26169 4.74996-.26169 7.11715-.001 2.40527.08984 4.83789.26855 7.2334zm207.40918-15.76465a95.72762 95.72762 0 0 0 -2.15039-14.1709l15.59375-3.584a111.86993 111.86993 0 0 1 2.51171 16.54589zm-189.34278-13.958-15.60156-3.54687a111.34028 111.34028 0 0 1 4.93555-16.00977l14.89062 5.85352a95.323 95.323 0 0 0 -4.22461 13.70311zm182.93946-13.89941a95.93712 95.93712 0 0 0 -6.25391-12.89063l13.832-8.041a111.90529 111.90529 0 0 1 7.30078 15.04687zm-172.48145-12.7227-13.84766-8.01367a112.91154 112.91154 0 0 1 9.43262-13.81543l12.50781 9.97656a96.873 96.873 0 0 0 -8.09277 11.85254zm158.11719-11.997a97.08051 97.08051 0 0 0 -9.77832-10.50391l10.87109-11.74023a113.25038 113.25038 0 0 1 11.39356 12.24023zm-140.26465-10.37992-10.89643-11.7168a112.97361 112.97361 0 0 1 13.05659-10.44728l9.041 13.20019a96.93366 96.93366 0 0 0 -11.20116 8.96389zm119.25977-9.07129a96.24561 96.24561 0 0 0 -12.4209-7.17774l6.94531-14.41406a112.36671 112.36671 0 0 1 14.49316 8.375zm-95.6592-7.09079-6.97852-14.39844a111.5963 111.5963 0 0 1 15.57227-6.14746l4.73828 15.28125a95.71522 95.71522 0 0 0 -13.33203 5.26465zm69.88769-5.3252a95.28077 95.28077 0 0 0 -13.97559-3.16992l2.35547-15.82617a111.63479 111.63479 0 0 1 16.3252 3.70312zm-42.58691-3.13965-2.39063-15.82031a112.91619 112.91619 0 0 1 16.67676-1.25879l.02148 16a96.861 96.861 0 0 0 -14.30759 1.07907z" fill="#379ec3"/><circle cx="240" cy="256" fill="#396795" r="72"/><path d="m408 264v32h-227.87012a71.30726 71.30726 0 0 1 -11.46-30.22 15.87833 15.87833 0 0 1 7.33012-1.78z" fill="#d3e1e9"/><rect fill="#c4d4e0" height="32" rx="16" width="104" x="384" y="264"/><path d="m304 296v.00006a63.99994 63.99994 0 0 0 63.99994 63.99994h.00012a63.99994 63.99994 0 0 0 63.99994-63.99994v-.00006z" fill="#2f4054"/><path d="m346.333 344 37.667 40h-160l37.671-40z" fill="#d3e1e9"/><path d="m240 296v.00006a63.99994 63.99994 0 0 0 63.99994 63.99994h.00012a63.99994 63.99994 0 0 0 63.99994-63.99994v-.00006z" fill="#395166"/><path d="m384 384h64l-37.667-40h-64z" fill="#c4d4e0"/></g></svg>